# xmcd
#
# Track frame offsets: 
#        150
#        13525
#        25967
#        38247
#        51390
#        64750
#        77082
#        86210
#        95487
#        109357
#        122185
#        135340
#        144600
#        153652
#        166285
#        178192
#        191347
#        203045
#        215975
#        228900
#        241762
#        253475
#
# Disc length: 3537 seconds
#
# Revision: 0
# Processed by: cddbd v1.5.2PL0 Copyright (c) Steve Scherf et al.
# Submitted via: ExactAudioCopyFreeDBPlugin 1.0
#
DISCID=420dcf16
DTITLE=Brown's Ferry Four - Rockin' On The Waves - Complete King Recor
DTITLE=dings 1946-1952 [CD1]
DYEAR=1997
DGENRE=Gospel
TTITLE0=Will The Circle Be Unbroken
TTITLE1=Just A Little Talk With Jesus
TTITLE2=Rockin' On The Waves
TTITLE3=If We Never Meet Again
TTITLE4=I'll Fly Away
TTITLE5=The Lord Is Watching (Over Me)
TTITLE6=Everybody Will Be Happy (Over There)
TTITLE7=Hallelujah Morning
TTITLE8=Old Camp Meeting
TTITLE9=There's A Light Guiding Me
TTITLE10=Salvation Has Been Brought Down
TTITLE11=When The Good Lord Cares
TTITLE12=Over In The Glory Land
TTITLE13=On The Jericho Road
TTITLE14=On The Jericho Road
TTITLE15=His Boundless Love
TTITLE16=Rock Of Ages, Hide Thou Me
TTITLE17=When He Blessed My Soul
TTITLE18=I've Got That Old Time Religion In My Heart
TTITLE19=Naturalized For Heaven
TTITLE20=When He Calls His Reapers
TTITLE21=I've Made A Covenant With My Lord
EXTD=
EXTT0=
EXTT1=
EXTT2=
EXTT3=
EXTT4=
EXTT5=
EXTT6=
EXTT7=
EXTT8=
EXTT9=
EXTT10=
EXTT11=
EXTT12=
EXTT13=
EXTT14=
EXTT15=
EXTT16=
EXTT17=
EXTT18=
EXTT19=
EXTT20=
EXTT21=
PLAYORDER=
